HIERARCHY
ROOT joint_Root
{
  OFFSET 0 0 0
  CHANNELS 6 Xposition Yposition Zposition Zrotation Xrotation Yrotation
  JOINT Hips
  {
    OFFSET 0 93.9241 -3
    CHANNELS 6 Xposition Yposition Zposition Zrotation Xrotation Yrotation
    JOINT Spine
    {
      OFFSET 15.7357 0 0
      CHANNELS 6 Xposition Yposition Zposition Zrotation Xrotation Yrotation
      JOINT Chest
      {
        OFFSET 8.98455 -0.406207 0
        CHANNELS 6 Xposition Yposition Zposition Zrotation Xrotation Yrotation
        JOINT Neck
        {
          OFFSET 16.3773 0 0
          CHANNELS 6 Xposition Yposition Zposition Zrotation Xrotation Yrotation
          JOINT Head
          {
            OFFSET 6.45672 0 0
            CHANNELS 6 Xposition Yposition Zposition Zrotation Xrotation Yrotation
            End Site
            {
              OFFSET 0 0 0
            }
          }
        }
        JOINT Shoulder_L
        {
          OFFSET 12.9942 -0.242716 4.98039
          CHANNELS 6 Xposition Yposition Zposition Zrotation Xrotation Yrotation
          JOINT UpperArm_L
          {
            OFFSET 5.34809 0 0
            CHANNELS 6 Xposition Yposition Zposition Zrotation Xrotation Yrotation
            JOINT LowerArm_L
            {
              OFFSET 24.3286 1.87007e-05 0
              CHANNELS 6 Xposition Yposition Zposition Zrotation Xrotation Yrotation
              JOINT Hand_L
              {
                OFFSET 22.2916 0 0
                CHANNELS 6 Xposition Yposition Zposition Zrotation Xrotation Yrotation
                End Site
                {
                  OFFSET 0 0 0
                }
              }
            }
          }
        }
        JOINT Shoulder_R
        {
          OFFSET 12.9945 -0.242716 -4.98039
          CHANNELS 6 Xposition Yposition Zposition Zrotation Xrotation Yrotation
          JOINT UpperArm_R
          {
            OFFSET -5.34813 0 0
            CHANNELS 6 Xposition Yposition Zposition Zrotation Xrotation Yrotation
            JOINT LowerArm_R
            {
              OFFSET -24.3289 0.000322201 0
              CHANNELS 6 Xposition Yposition Zposition Zrotation Xrotation Yrotation
              JOINT Hand_R
              {
                OFFSET -22.2915 -0.000108084 0
                CHANNELS 6 Xposition Yposition Zposition Zrotation Xrotation Yrotation
                End Site
                {
                  OFFSET 0 0 0
                }
              }
            }
          }
        }
      }
    }
    JOINT UpperLeg_L
    {
      OFFSET -2.19248 -6.46944 0
      CHANNELS 6 Xposition Yposition Zposition Zrotation Xrotation Yrotation
      JOINT LowerLeg_L
      {
        OFFSET 39.0811 0 -1.23785e-05
        CHANNELS 6 Xposition Yposition Zposition Zrotation Xrotation Yrotation
        JOINT Foot_L
        {
          OFFSET 40.9854 0 -1.26872e-05
          CHANNELS 6 Xposition Yposition Zposition Zrotation Xrotation Yrotation
          JOINT Toes_L
          {
            OFFSET 11.7543 0 0
            CHANNELS 6 Xposition Yposition Zposition Zrotation Xrotation Yrotation
            End Site
            {
              OFFSET 0 0 0
            }
          }
        }
      }
    }
    JOINT UpperLeg_R
    {
      OFFSET -2.19251 6.46944 0
      CHANNELS 6 Xposition Yposition Zposition Zrotation Xrotation Yrotation
      JOINT LowerLeg_R
      {
        OFFSET -39.0811 -0.00228153 -0.0401928
        CHANNELS 6 Xposition Yposition Zposition Zrotation Xrotation Yrotation
        JOINT Foot_R
        {
          OFFSET -40.9854 0 0
          CHANNELS 6 Xposition Yposition Zposition Zrotation Xrotation Yrotation
          JOINT Toes_R
          {
            OFFSET -11.7543 0 0
            CHANNELS 6 Xposition Yposition Zposition Zrotation Xrotation Yrotation
            End Site
            {
              OFFSET 0 0 0
            }
          }
        }
      }
    }
  }
}
MOTION
Frames:	7
Frame Time:	0.0333333
0 0 0 0 0 -0 1.18322 92.6216 -8.39542 90.7792 -10.8927 -0.609877 15.7357 5.1072e-06 -5.51765e-07 108.584 86.4452 -108.776 8.98455 -0.406207 -4.3199e-07 -1.02332 2.28004 -0.363618 16.3773 -1.3905e-06 -6.99897e-07 -0.869101 -5.2454 0.955014 6.45672 -1.25837e-06 -1.02172e-07 16.2202 -10.1384 3.0741 12.9942 -0.242716 4.98039 -90.4166 2.31659 -94.8044 5.34809 -7.22636e-06 -6.2814e-07 -75.3819 -8.02571 7.05846 24.3286 1.87007e-05 4.90208e-06 1.77943 6.53694 -15.2633 22.2916 -9.88446e-07 4.63217e-06 7.18677 5.21922 2.2327 12.9945 -0.242716 -4.98039 89.2469 6.46015 -98.337 -5.34813 -1.25947e-06 -3.79883e-06 -69.9455 -5.40883 11.7188 -24.3289 0.000322201 -8.65921e-06 0.226719 0.749096 -16.9079 -22.2915 -0.000108084 -4.47941e-06 10.6596 5.35261 -1.45589 -2.19248 -6.46944 -1.22534e-07 175.987 -2.78171 -14.4487 39.0811 -6.73843e-06 -1.23785e-05 0.0311553 -0.0689008 17.1518 40.9854 -6.48686e-06 -1.26872e-05 3.85347 -2.88869 -53.9847 11.7543 -2.30145e-07 3.05095e-06 0.0792353 -0.0892035 -17.447 -2.19251 6.46944 -1.45247e-06 -174.671 14.2469 171.554 -39.0811 -0.00228153 -0.0401928 0.0242677 -0.0246697 17.8093 -40.9854 7.72618e-06 5.99936e-06 2.85816 -18.2104 -62.2942 -11.7543 -5.6619e-06 -5.58687e-06 0.00165873 -0.00172567 -16.5871 
0 0 0 0 0 -0 1.17562 92.6233 -8.14094 90.9164 -10.7066 -0.29981 15.7357 5.1072e-06 -5.51765e-07 108.135 86.4045 -108.41 8.98455 -0.406207 -4.3199e-07 -0.92675 2.25862 -0.530408 16.3773 -1.3905e-06 -6.99897e-07 -0.801463 -5.49461 1.00463 6.45672 -1.25837e-06 -1.02172e-07 16.4142 -10.4647 3.285 12.9942 -0.242716 4.98039 -90.3806 2.15652 -94.9891 5.34809 -7.22636e-06 -6.2814e-07 -75.4355 -7.75521 6.73912 24.3286 1.87007e-05 4.90208e-06 1.84739 6.49233 -15.9212 22.2916 -9.88446e-07 4.63217e-06 7.30943 5.21767 2.27235 12.9945 -0.242716 -4.98039 89.2591 6.49409 -98.477 -5.34813 -1.25947e-06 -3.79883e-06 -70.0231 -5.34398 11.5461 -24.3289 0.000322201 -8.65921e-06 -0.145383 -0.481656 -16.6864 -22.2915 -0.000108084 -4.47941e-06 11.0526 5.34454 -1.21433 -2.19248 -6.46944 -1.22534e-07 175.823 -2.86913 -13.9802 39.0811 -6.73843e-06 -1.23785e-05 0.0351546 -0.0794876 17.1709 40.9854 -6.48686e-06 -1.26872e-05 3.90535 -2.57904 -54.1956 11.7543 -2.30145e-07 3.05095e-06 0.079791 -0.0898365 -17.4531 -2.19251 6.46944 -1.45247e-06 -174.954 14.5905 171.99 -39.0811 -0.00228153 -0.0401928 0.0237634 -0.0211523 17.9066 -40.9854 7.72618e-06 5.99936e-06 2.71912 -18.0937 -62.552 -11.7543 -5.6619e-06 -5.58687e-06 -0.00424835 0.00235834 -16.5739 
0 0 0 0 0 -0 1.16476 92.6139 -7.87924 91.0486 -10.5991 -0.025612 15.7357 5.1072e-06 -5.51765e-07 107.89 86.3827 -108.25 8.98455 -0.406207 -4.3199e-07 -0.874074 2.24903 -0.701316 16.3773 -1.3905e-06 -6.99897e-07 -0.845978 -5.6619 1.06026 6.45672 -1.25837e-06 -1.02172e-07 16.7702 -10.733 3.49871 12.9942 -0.242716 4.98039 -90.3587 2.04541 -95.0509 5.34809 -7.22636e-06 -6.2814e-07 -75.41 -7.62631 6.4474 24.3286 1.87007e-05 4.90208e-06 1.96577 6.56762 -16.7036 22.2916 -9.88446e-07 4.63217e-06 7.41274 5.21922 2.23291 12.9945 -0.242716 -4.98039 89.2746 6.55356 -98.6695 -5.34813 -1.25947e-06 -3.79883e-06 -70.0802 -5.25704 11.3906 -24.3289 0.000322201 -8.65921e-06 -0.499134 -1.65659 -16.7376 -22.2915 -0.000108084 -4.47941e-06 11.2569 5.33103 -0.81577 -2.19248 -6.46944 -1.22534e-07 175.687 -2.67178 -13.5992 39.0811 -6.73843e-06 -1.23785e-05 0.0389839 -0.0893025 17.2866 40.9854 -6.48686e-06 -1.26872e-05 3.90656 -2.67965 -54.429 11.7543 -2.30145e-07 3.05095e-06 0.0798864 -0.0899478 -17.4542 -2.19251 6.46944 -1.45247e-06 -175.229 14.7853 172.354 -39.0811 -0.00228153 -0.0401928 0.0222703 -0.0188577 18.0885 -40.9854 7.72618e-06 5.99936e-06 2.56028 -18.0353 -62.8471 -11.7543 -5.6619e-06 -5.58687e-06 -0.0104523 0.00579134 -16.5739 
0 0 0 0 0 -0 1.13172 92.5968 -7.65484 91.1236 -10.3936 0.136907 15.7357 5.1072e-06 -5.51765e-07 107.802 86.4053 -108.24 8.98455 -0.406207 -4.3199e-07 -0.912197 2.23067 -0.859082 16.3773 -1.3905e-06 -6.99897e-07 -0.864999 -5.87701 1.09836 6.45672 -1.25837e-06 -1.02172e-07 17.0588 -10.9686 3.78352 12.9942 -0.242716 4.98039 -90.3435 1.97555 -95.1328 5.34809 -7.22636e-06 -6.2814e-07 -75.3134 -7.80659 6.16416 24.3286 1.87007e-05 4.90208e-06 2.10665 6.69856 -17.5023 22.2916 -9.88446e-07 4.63217e-06 7.54035 5.2216 2.17169 12.9945 -0.242716 -4.98039 89.283 6.64035 -98.8233 -5.34813 -1.25947e-06 -3.79883e-06 -70.1466 -5.37837 11.2645 -24.3289 0.000322201 -8.65921e-06 -1.11535 -3.66517 -16.9212 -22.2915 -0.000108084 -4.47941e-06 11.5055 5.32693 -0.696527 -2.19248 -6.46944 -1.22534e-07 175.59 -2.82622 -13.4058 39.0811 -6.73843e-06 -1.23785e-05 0.0437192 -0.101079 17.5103 40.9854 -6.48686e-06 -1.26872e-05 3.94518 -2.36838 -54.7072 11.7543 -2.30145e-07 3.05095e-06 0.0722715 -0.081247 -17.37 -2.19251 6.46944 -1.45247e-06 -175.391 14.936 172.599 -39.0811 -0.00228153 -0.0401928 0.0213321 -0.015903 18.2528 -40.9854 7.72618e-06 5.99936e-06 2.41231 -18.1114 -63.1174 -11.7543 -5.6619e-06 -5.58687e-06 -0.00711365 0.00393478 -16.5739 
0 0 0 0 0 -0 1.08982 92.5835 -7.41857 91.2269 -10.2074 0.313103 15.7357 5.1072e-06 -5.51765e-07 107.948 86.4203 -108.486 8.98455 -0.406207 -4.3199e-07 -0.944287 2.24663 -1.05598 16.3773 -1.3905e-06 -6.99897e-07 -0.906161 -6.09191 1.20046 6.45672 -1.25837e-06 -1.02172e-07 17.2466 -11.2306 4.03745 12.9942 -0.242716 4.98039 -90.3304 1.91247 -95.2004 5.34809 -7.22636e-06 -6.2814e-07 -75.2079 -7.85245 5.86886 24.3286 1.87007e-05 4.90208e-06 2.20454 6.70111 -18.257 22.2916 -9.88446e-07 4.63217e-06 7.81597 5.22335 2.1269 12.9945 -0.242716 -4.98039 89.2838 6.72068 -98.9037 -5.34813 -1.25947e-06 -3.79883e-06 -70.2589 -5.51435 11.1969 -24.3289 0.000322201 -8.65921e-06 -2.24089 -7.13319 -17.4819 -22.2915 -0.000108084 -4.47941e-06 11.7972 5.31777 -0.432014 -2.19248 -6.46944 -1.22534e-07 175.488 -2.71733 -13.1597 39.0811 -6.73843e-06 -1.23785e-05 0.0478895 -0.111681 17.6714 40.9854 -6.48686e-06 -1.26872e-05 3.9443 -2.35289 -54.9473 11.7543 -2.30145e-07 3.05095e-06 0.0761158 -0.0856264 -17.4124 -2.19251 6.46944 -1.45247e-06 -175.591 15.3881 172.863 -39.0811 -0.00228153 -0.0401928 0.0216378 -0.0104274 18.4017 -40.9854 7.72618e-06 5.99936e-06 2.31063 -17.9 -63.3937 -11.7543 -5.6619e-06 -5.58687e-06 -0.0156391 0.00861254 -16.5739 
0 0 0 0 0 -0 1.03612 92.5707 -7.20922 91.3045 -9.95959 0.352429 15.7357 5.1072e-06 -5.51765e-07 107.993 86.4866 -108.619 8.98455 -0.406207 -4.3199e-07 -1.0706 2.21839 -1.23016 16.3773 -1.3905e-06 -6.99897e-07 -0.937319 -6.26401 1.24334 6.45672 -1.25837e-06 -1.02172e-07 17.4588 -11.4811 4.31782 12.9942 -0.242716 4.98039 -90.3153 1.845 -95.2997 5.34809 -7.22636e-06 -6.2814e-07 -75.1071 -7.81046 5.58819 24.3286 1.87007e-05 4.90208e-06 2.27563 6.69209 -18.8293 22.2916 -9.88446e-07 4.63217e-06 8.01291 5.22361 2.12039 12.9945 -0.242716 -4.98039 89.2897 6.75432 -98.9822 -5.34813 -1.25947e-06 -3.79883e-06 -70.3997 -5.87479 11.0558 -24.3289 0.000322201 -8.65921e-06 -3.24725 -9.97837 -18.1235 -22.2915 -0.000108084 -4.47941e-06 12.1618 5.31575 -0.37417 -2.19248 -6.46944 -1.22534e-07 175.44 -2.43554 -13.0672 39.0811 -6.73843e-06 -1.23785e-05 0.0503868 -0.117078 17.85 40.9854 -6.48686e-06 -1.26872e-05 3.90735 -2.34416 -55.17 11.7543 -2.30145e-07 3.05095e-06 0.081189 -0.0914406 -17.4686 -2.19251 6.46944 -1.45247e-06 -175.717 15.7567 173.015 -39.0811 -0.00228153 -0.0401928 0.0199123 -0.0069347 18.4946 -40.9854 7.72618e-06 5.99936e-06 2.22021 -17.7726 -63.6337 -11.7543 -5.6619e-06 -5.58687e-06 -0.0147162 0.00807536 -16.5739 
0 0 0 0 0 -0 0.990444 92.5661 -7.00012 91.38 -9.73418 0.365885 15.7357 5.1072e-06 -5.51765e-07 108.139 86.5587 -108.847 8.98455 -0.406207 -4.3199e-07 -1.21155 2.19776 -1.39208 16.3773 -1.3905e-06 -6.99897e-07 -0.98083 -6.45287 1.2945 6.45672 -1.25837e-06 -1.02172e-07 17.6145 -11.6763 4.5181 12.9942 -0.242716 4.98039 -90.2968 1.7566 -95.4066 5.34809 -7.22636e-06 -6.2814e-07 -75.0466 -7.75455 5.30641 24.3286 1.87007e-05 4.90208e-06 2.34404 6.75613 -19.185 22.2916 -9.88446e-07 4.63217e-06 8.11332 5.22405 2.10873 12.9945 -0.242716 -4.98039 89.2962 6.71642 -99.0035 -5.34813 -1.25947e-06 -3.79883e-06 -70.6286 -5.98538 10.8021 -24.3289 0.000322201 -8.65921e-06 -4.31998 -12.7591 -18.8776 -22.2915 -0.000108084 -4.47941e-06 12.7349 5.30758 -0.141777 -2.19248 -6.46944 -1.22534e-07 175.359 -2.42829 -12.9578 39.0811 -6.73843e-06 -1.23785e-05 0.0523275 -0.121824 17.9354 40.9854 -6.48686e-06 -1.26872e-05 3.92483 -2.13182 -55.3614 11.7543 -2.30145e-07 3.05095e-06 0.0815851 -0.0918793 -17.4729 -2.19251 6.46944 -1.45247e-06 -175.829 15.9973 173.166 -39.0811 -0.00228153 -0.0401928 0.0217717 -0.0112191 18.5156 -40.9854 7.72618e-06 5.99936e-06 2.13474 -17.7231 -63.8192 -11.7543 -5.6619e-06 -5.58687e-06 -0.0259902 0.0141844 -16.5739 
